<svg xmlns="http://www.w3.org/2000/svg" viewBox="0 0 150.72 150.72"><defs><style>.cls-1{fill:#173760;}.cls-2{fill:#fff;}</style></defs><title>flesje</title><g id="Layer_2" data-name="Layer 2"><g id="Layer_1-2" data-name="Layer 1"><circle class="cls-1" cx="75.36" cy="75.36" r="75.36"/><path class="cls-2" d="M68.77,17.87s.55-3.13,7.09-2.76,7.27,1.75,7.36,2.58.57,2.84-1,2.72c0,0,2.71,5.31.45,5.93,0,0,1.28,25,3.46,31.43s5.28,16.16,5.19,26.88-.42,44.21-.42,44.21-.42,5.95-1.59,6.78l-28.51,0a6.3,6.3,0,0,1-1-3.19c-.2-2.18-.6-40.51-.19-48.21a72.68,72.68,0,0,1,4-20.47c2.23-6.59,4.05-18.44,4.36-23.21s1.42-14,1.42-14-1.76-.58.31-6.1C69.62,20.44,68.18,20,68.77,17.87Z"/></g></g></svg>