<svg xmlns="http://www.w3.org/2000/svg" viewBox="0 0 235.96 326.71"><defs><style>.cls-1{fill:#fff}</style></defs><title>pijl_1</title><g id="Layer_2" data-name="Layer 2"><g id="Layer_1-2" data-name="Layer 1"><path class="cls-1" d="M123.46 318c-13-19.62-26.27-39.59-43.72-55.58-19.11-17.5-41.91-26.61-67-32.12-7.47-1.64-10.66 9.83-3.17 11.48 23.59 5.19 45 13.43 62.86 30.14C88.68 287 101 305.61 113.18 324c4.21 6.36 14.52.41 10.28-6z"/><path class="cls-1" d="M5.72 240.67c24.88 1.67 49.2-5.06 71.55-15.6 18.44-8.7 49.91-22.8 44.25-48.22-1.67-7.48-13.15-4.31-11.48 3.17 2.29 10.28-8.06 17.47-15.56 22.11a225 225 0 0 1-28 14.87c-19.14 8.38-39.76 13.18-60.71 11.78-7.65-.51-7.62 11.39 0 11.91zm120.6 14.84c37.31-3.89 82.49-11.92 100.19-49.94 8.66-18.6 9.56-39.84 9.43-60a401.89 401.89 0 0 0-6.4-66.44c-4.41-25.31-10.8-50.23-17.94-74.9C209.47-3.16 198 0 200.12 7.35c11.61 40.08 21.32 81 23.47 122.85 1 19.07 1.47 39.38-3.42 58-4.57 17.41-15.46 30.7-31 39.55-19.07 10.83-41.37 13.63-62.82 15.86-7.54.79-7.63 12.7 0 11.91z"/></g></g></svg>