<svg xmlns="http://www.w3.org/2000/svg" viewBox="0 0 150.72 150.72"><defs><style>.cls-1{fill:#173760;}.cls-2{fill:#fff;}</style></defs><title>Asset 1</title><g id="Layer_2" data-name="Layer 2"><g id="Layer_1-2" data-name="Layer 1"><circle class="cls-1" cx="75.36" cy="75.36" r="75.36"/><path class="cls-2" d="M104.88,127.93s-.83-12.16-16-21.75S60.43,75.48,57.1,61.83c0,0,4.57,34.33,32.61,48.19,0,0-8.31,4.9-16.2,3.63S50,102.77,46.92,98.29h7.69s-12.67-12.16-13.5-22S39.65,55,41.11,45L44.43,49A49.35,49.35,0,0,1,58.76,16.41S57.31,38.58,69.57,49,91.38,74.41,89.71,83.58L93,74.84S102,89.55,94.7,105.12c0,0,12.46,8.32,14.54,22.6Z"/></g></g></svg>