<svg xmlns="http://www.w3.org/2000/svg" viewBox="0 0 150.72 150.72"><defs><style>.cls-1{fill:#173760;}.cls-2{fill:#fff;}.cls-3{fill:none;stroke:#fff;stroke-linecap:round;stroke-miterlimit:10;}</style></defs><title>temp</title><g id="Layer_2" data-name="Layer 2"><g id="Layer_1-2" data-name="Layer 1"><circle class="cls-1" cx="75.36" cy="75.36" r="75.36"/><path class="cls-2" d="M79.27,119.23a4.16,4.16,0,0,0,.09-.86V18.29a4.19,4.19,0,1,0-8.38,0V118.37a4.16,4.16,0,0,0,.09.86,10.26,10.26,0,1,0,8.19,0Zm-4.1,16.09a6.68,6.68,0,0,1-1.71-13.14l.34.14V20a1.37,1.37,0,1,1,2.74,0V122.32l.34-.14a6.68,6.68,0,0,1-1.71,13.14Z"/><line class="cls-3" x1="81.42" y1="115.2" x2="86.14" y2="115.2"/><line class="cls-3" x1="81.42" y1="105.2" x2="86.14" y2="105.2"/><line class="cls-3" x1="81.42" y1="95.2" x2="86.14" y2="95.2"/><line class="cls-3" x1="81.42" y1="85.2" x2="86.14" y2="85.2"/><line class="cls-3" x1="81.42" y1="75.2" x2="86.14" y2="75.2"/><line class="cls-3" x1="81.42" y1="65.2" x2="86.14" y2="65.2"/><line class="cls-3" x1="81.42" y1="55.2" x2="86.14" y2="55.2"/><line class="cls-3" x1="81.42" y1="45.2" x2="86.14" y2="45.2"/></g></g></svg>